/* XPM */
static char * newxcursor2_xpm[] = {
"24 24 18 1",
" 	c None",
".	c #00FF30",
"+	c #00D427",
"@	c #00FC2F",
"#	c #008818",
"$	c #00D627",
"%	c #008018",
"&	c #008819",
"*	c #00E62B",
"=	c #00981C",
"-	c #008418",
";	c #00D227",
">	c #00E92B",
",	c #008E1A",
"'	c #00961C",
")	c #00C124",
"!	c #00C724",
"~	c #008318",
"....                ....",
".....              .....",
"+@....            ......",
"#$.....          ......%",
" &*.....        .....*= ",
"  -;.....      ......=  ",
"   %>.....    ......%   ",
"    &*.....  ......=    ",
"     %;...........%     ",
"      -;.........%      ",
"       -;.......%       ",
"        -*.....=        ",
"        .%....=*        ",
"       ...=*.%*..       ",
"      .....%,*....      ",
"     ......'%*.....     ",
"    .....;%  =*.....    ",
"   .....)-    -*.....   ",
"  .....+-      %......  ",
" ......&        =*..... ",
"......%          %>.....",
".....%            %+@...",
"...>%              #!@..",
"..*-                ~+.."};
